<svg xmlns="http://www.w3.org/2000/svg" width="24" height="24" fill="none" viewBox="0 0 24 24">
    <path fill="#231F20" fill-rule="evenodd" d="M9.294 21c-1.656 0-3.23-.666-4.432-1.875-2.388-2.403-2.486-6.213-.22-8.494l7.386-7.43C12.798 2.427 13.835 2 14.95 2c1.194 0 2.328.479 3.192 1.349 1.721 1.731 1.788 4.482.146 6.132l-7.395 7.429c-.479.483-1.123.748-1.815.748-.731 0-1.424-.292-1.95-.821-1.053-1.061-1.086-2.752-.073-3.772L13.88 6.21c.39-.392 1.021-.394 1.413-.004.392.39.394 1.023.004 1.414l-6.824 6.856c-.24.242-.207.669.074.951.146.147.34.231.53.231.11 0 .269-.027.399-.158l7.394-7.429c.867-.873.802-2.358-.146-3.312-.906-.912-2.446-.984-3.277-.148l-7.386 7.43c-1.494 1.503-1.396 4.049.22 5.674C7.104 18.544 8.174 19 9.294 19c1 0 1.928-.378 2.61-1.064l7.387-7.43c.39-.391 1.023-.394 1.415-.004.39.39.393 1.022.003 1.414l-7.386 7.43C12.262 20.412 10.83 21 9.293 21z" clip-rule="evenodd"/>
    <mask id="j36jy4ifia" width="18" height="19" x="3" y="2" maskUnits="userSpaceOnUse">
        <path fill="#fff" fill-rule="evenodd" d="M9.294 21c-1.656 0-3.23-.666-4.432-1.875-2.388-2.403-2.486-6.213-.22-8.494l7.386-7.43C12.798 2.427 13.835 2 14.95 2c1.194 0 2.328.479 3.192 1.349 1.721 1.731 1.788 4.482.146 6.132l-7.395 7.429c-.479.483-1.123.748-1.815.748-.731 0-1.424-.292-1.95-.821-1.053-1.061-1.086-2.752-.073-3.772L13.88 6.21c.39-.392 1.021-.394 1.413-.004.392.39.394 1.023.004 1.414l-6.824 6.856c-.24.242-.207.669.074.951.146.147.34.231.53.231.11 0 .269-.027.399-.158l7.394-7.429c.867-.873.802-2.358-.146-3.312-.906-.912-2.446-.984-3.277-.148l-7.386 7.43c-1.494 1.503-1.396 4.049.22 5.674C7.104 18.544 8.174 19 9.294 19c1 0 1.928-.378 2.61-1.064l7.387-7.43c.39-.391 1.023-.394 1.415-.004.39.39.393 1.022.003 1.414l-7.386 7.43C12.262 20.412 10.83 21 9.293 21z" clip-rule="evenodd"/>
    </mask>
    <g mask="url(#j36jy4ifia)">
        <path fill="#707C97" d="M0 0H24V24H0z"/>
    </g>
</svg>
